<mxfile host="app.diagrams.net" agent="Mozilla/5.0 (Windows NT 10.0; Win64; x64) AppleWebKit/537.36 (KHTML, like Gecko) Chrome/130.0.0.0 Safari/537.36" version="24.7.17">
  <diagram name="Page-1" id="n66FC4MkFbHkqclilSAl">
    <mxGraphModel dx="1221" dy="599" grid="1" gridSize="10" guides="1" tooltips="1" connect="1" arrows="1" fold="1" page="1" pageScale="1" pageWidth="1169" pageHeight="827" math="0" shadow="0">
      <root>
        <mxCell id="0" />
        <mxCell id="1" parent="0" />
        <mxCell id="y8x_kE83KlBPJohJys4L-1" value="" style="rounded=1;whiteSpace=wrap;html=1;fillColor=#1a1919;" vertex="1" parent="1">
          <mxGeometry x="520" y="80" width="80" height="260" as="geometry" />
        </mxCell>
        <mxCell id="y8x_kE83KlBPJohJys4L-2" value="" style="ellipse;whiteSpace=wrap;html=1;aspect=fixed;fillColor=#e51400;fontColor=#ffffff;strokeColor=#B20000;opacity=30;" vertex="1" parent="1">
          <mxGeometry x="535" y="100" width="50" height="50" as="geometry" />
        </mxCell>
        <mxCell id="y8x_kE83KlBPJohJys4L-3" value="" style="ellipse;whiteSpace=wrap;html=1;aspect=fixed;fillColor=#e3c800;fontColor=#000000;strokeColor=#B09500;opacity=30;" vertex="1" parent="1">
          <mxGeometry x="535" y="185" width="50" height="50" as="geometry" />
        </mxCell>
        <mxCell id="y8x_kE83KlBPJohJys4L-4" value="" style="ellipse;whiteSpace=wrap;html=1;aspect=fixed;fillColor=#008a00;fontColor=#ffffff;strokeColor=#005700;" vertex="1" parent="1">
          <mxGeometry x="535" y="270" width="50" height="50" as="geometry" />
        </mxCell>
      </root>
    </mxGraphModel>
  </diagram>
</mxfile>
